<?xml version="1.0" encoding="utf-8"?>
<!-- Generator: Adobe Illustrator 21.1.0, SVG Export Plug-In . SVG Version: 6.00 Build 0)  -->
<svg version="1.1" xmlns="http://www.w3.org/2000/svg" xmlns:xlink="http://www.w3.org/1999/xlink" x="0px" y="0px"
	 viewBox="0 0 630.3 399" style="enable-background:new 0 0 630.3 399;" xml:space="preserve">
<style type="text/css">
	.st0{fill:#FFFFFF;}
	.st1{fill:none;}
	.st2{fill:none;stroke:#000000;stroke-miterlimit:10;}
	.st3{display:none;}
	.st4{display:inline;}
	.st5{display:inline;fill:none;stroke:#FFFFFF;stroke-miterlimit:10;}
	.st6{display:inline;fill:#FFFFFF;stroke:#000000;stroke-miterlimit:10;}
	.st7{display:inline;fill:#786268;}
	.st8{display:inline;fill:#0BAA4B;}
	.st9{display:inline;fill:#525352;}
	.st10{display:inline;fill:#8CCD9F;}
	.st11{display:inline;fill:#81C341;}
	.st12{display:inline;fill:none;stroke:#000000;stroke-width:5.000000e-02;stroke-miterlimit:10;}
	.st13{display:inline;fill:#8B5E3C;}
	.st14{display:inline;fill:#FFFFFF;}
</style>
<g id="Layer_1">
	<g>
		<path class="st0" d="M385.6,339.5c-8.7,19.9-17.7,39.6-26.7,59.5h-84.3L451,0l179.3,399h-84.6c-8.7-19.7-17.5-39.6-26.2-59.3
			H386.1L385.6,339.5z M487.4,270.4L452.9,189l-34.8,81.4H487.4z"/>
		<polygon class="st0" points="367.1,0 274.3,213.6 181.5,0 		"/>
		<g>
			<path class="st0" d="M261.2,183.3c3.9-11.8,5.9-24.3,5.9-38.7v-12.4c0-38.3-10.9-64-37.9-91.5c-12.3-12.5-26.8-22.1-42.5-28.9
				L261.2,183.3z"/>
			<path class="st0" d="M0,0l0.2,399h78.5V260.3h46L186.4,399h88.2l-6.7-15.3L209,250.3l0,0l-34.6-78.4c-1.2,1.5-2.5,2.9-3.9,4.4
				c-11.4,11.6-19.7,15.8-36,15.8l-56.1-0.2V79.6h44c3.7,0,7.6,0.2,11.6,0.7L98.6,0"/>
		</g>
	</g>
</g>
<g id="Layer_2" class="st3">
</g>
</svg>
